<svg width="10" height="11" viewBox="0 0 10 11" fill="none" xmlns="http://www.w3.org/2000/svg">
<path d="M7.80878 2.21352C7.94965 2.07941 8.13711 2.00526 8.3316 2.00674C8.52609 2.00821 8.71241 2.08518 8.85123 2.2214C8.99005 2.35763 9.07052 2.54246 9.07566 2.73689C9.0808 2.93132 9.01021 3.12014 8.87878 3.26352L4.88878 8.25352C4.82017 8.32742 4.73737 8.38672 4.64531 8.42788C4.55326 8.46905 4.45385 8.49123 4.35303 8.49309C4.25221 8.49496 4.15205 8.47648 4.05854 8.43875C3.96502 8.40102 3.88008 8.34482 3.80878 8.27352L1.16278 5.62752C1.08909 5.55885 1.02999 5.47605 0.989 5.38406C0.948008 5.29206 0.925966 5.19274 0.924189 5.09204C0.922412 4.99134 0.940937 4.89131 0.978658 4.79792C1.01638 4.70453 1.07252 4.6197 1.14374 4.54848C1.21496 4.47726 1.29979 4.42112 1.39318 4.38339C1.48657 4.34567 1.5866 4.32715 1.6873 4.32893C1.78801 4.3307 1.88732 4.35274 1.97932 4.39374C2.07132 4.43473 2.15412 4.49383 2.22278 4.56752L4.31678 6.66052L7.78978 2.23552C7.79603 2.22782 7.80271 2.22047 7.80978 2.21352H7.80878Z" fill="#4C95DF"/>
</svg>
