<svg width="24" height="24" viewBox="0 0 24 24"  xmlns="http://www.w3.org/2000/svg">
<path d="M16.2917 6.29408C16.6823 5.90355 17.3154 5.90355 17.706 6.29408C18.0965 6.6846 18.0965 7.31776 17.706 7.70829L13.4143 12L17.706 16.2917C18.0965 16.6822 18.0965 17.3154 17.706 17.7059C17.3154 18.0964 16.6823 18.0964 16.2918 17.7059L12 13.4142L7.70833 17.7059C7.3178 18.0964 6.68464 18.0964 6.29411 17.7059C5.90359 17.3154 5.90359 16.6822 6.29411 16.2917L10.5858 12L6.29412 7.70829C5.9036 7.31776 5.9036 6.6846 6.29412 6.29408C6.68464 5.90355 7.31781 5.90355 7.70833 6.29408L12 10.5858L16.2917 6.29408Z"/>
</svg>
