<svg width="105" height="27" viewBox="0 0 105 27" fill="none" xmlns="http://www.w3.org/2000/svg">
<path d="M0 26.5606L11.4964 0.118927H15.9364L27.4327 26.521H21.3674L19.2267 21.6053H8.12675L5.98605 26.521H0V26.5606ZM13.7164 8.80068L10.2675 16.6896H17.1256L13.7164 8.80068Z" fill="white"/>
<path d="M49.4344 0.118927L37.6606 26.5606H33.5774L21.1692 0.118927H27.5913L35.6388 17.5617L43.1709 0.118927H49.4344Z" fill="white"/>
<path d="M43.0916 26.5606L54.5879 0.158569H59.0279L70.5243 26.5606H64.4986L62.3579 21.6449H51.2183L49.0776 26.5606H43.0916ZM56.7683 8.80068L53.359 16.6896H60.2172L56.7683 8.80068Z" fill="white"/>
<path d="M76.0742 0.594648L75.876 1.50643L75.7571 1.54607C75.3606 1.30822 75.0039 1.11 74.6867 1.03072C74.3696 0.911789 74.0128 0.872146 73.656 0.872146C71.8721 0.872146 71 1.98214 71 4.16249C71 5.23284 71.1982 5.98605 71.6342 6.50141C72.0307 6.97712 72.7046 7.25462 73.5371 7.25462C73.7749 7.25462 74.0128 7.21498 74.211 7.17533C74.4489 7.13569 74.7264 7.05641 75.1228 6.93748L75.1624 6.0257V4.83642L76.0742 4.75713L76.0346 5.86713L76.0742 7.57176C75.5589 7.73033 75.0831 7.84926 74.6471 7.92855C74.2507 8.00783 73.8542 8.04747 73.4578 8.04747C72.3082 8.04747 71.3964 7.73033 70.8414 7.05641C70.2467 6.38248 69.9692 5.43106 69.9692 4.20213C69.9692 2.85428 70.2864 1.82357 70.9603 1.11C71.6342 0.396434 72.546 0.03965 73.7749 0.03965C74.6074 0.03965 75.3606 0.237863 76.0742 0.594648Z" fill="white"/>
<path d="M83.1308 7.73032V7.84925C82.8533 7.96818 82.5361 8.04747 82.219 8.08711L82.1001 8.00782C81.4262 7.01676 80.8315 6.02569 80.3162 5.07426H78.889V5.54998V7.96818H77.8979L77.9772 5.58962L77.8979 0.118927H80.3162C81.0694 0.118927 81.664 0.31714 82.1001 0.713567C82.5361 1.10999 82.7344 1.66499 82.7344 2.37856C82.7344 2.93356 82.5758 3.40927 82.2983 3.84534C82.0208 4.28141 81.6244 4.59855 81.109 4.83641C81.664 5.6689 82.3379 6.65997 83.1308 7.73032ZM78.8494 4.20213L80.3162 4.24177C81.2279 3.96427 81.7037 3.36963 81.7037 2.4182C81.7037 1.90285 81.5847 1.54606 81.3072 1.30821C81.0297 1.07035 80.6333 0.911781 80.0783 0.911781L78.889 0.951424L78.8494 4.20213Z" fill="white"/>
<path d="M89.8303 1.03072C90.4249 1.70464 90.7024 2.65607 90.7024 3.88499C90.7024 5.23284 90.3853 6.26355 89.7906 6.97712C89.196 7.69069 88.2842 8.04748 87.1742 8.04748C86.1039 8.04748 85.311 7.69069 84.7164 7.01677C84.1217 6.34284 83.8442 5.35177 83.8442 4.08321C83.8442 2.775 84.1614 1.78393 84.756 1.07036C85.3507 0.356792 86.2228 7.62939e-06 87.3724 7.62939e-06C88.4428 0.0396503 89.2753 0.356792 89.8303 1.03072ZM84.875 4.00392C84.875 5.11392 85.0732 5.94641 85.4696 6.50141C85.866 7.05641 86.4607 7.29426 87.2535 7.29426C88.8789 7.29426 89.7114 6.22391 89.7114 4.08321C89.7114 2.97321 89.5131 2.18036 89.1167 1.62536C88.7203 1.11 88.1257 0.832504 87.3328 0.832504C85.6678 0.832504 84.875 1.90286 84.875 4.00392Z" fill="white"/>
<path d="M97.8382 4.12284V4.99498C97.8382 5.9464 97.6004 6.69962 97.085 7.25461C96.5696 7.80961 95.8164 8.04747 94.865 8.04747C93.9532 8.04747 93.2397 7.80961 92.7243 7.29425C92.2486 6.7789 92.0107 6.06533 92.0107 5.11391V4.04355V0.118927H92.9622L92.9225 4.99498C92.9225 5.74819 93.0811 6.30319 93.3982 6.65997C93.7154 7.01676 94.2307 7.21497 94.9047 7.21497C95.5786 7.21497 96.0543 7.0564 96.4111 6.69961C96.7679 6.34283 96.9264 5.82748 96.9264 5.11391L96.8868 0.118927H97.8779L97.8382 4.12284Z" fill="white"/>
<path d="M104.022 0.713571C104.458 1.11 104.657 1.665 104.657 2.41821C104.657 3.29035 104.379 3.96427 103.864 4.47963C103.348 4.99498 102.635 5.23284 101.723 5.23284H100.811V5.54998L100.851 8.00783H99.8599L99.9392 5.62927L99.8599 0.158573H102.278C103.031 0.118931 103.626 0.317144 104.022 0.713571ZM103.269 3.8057C103.547 3.48856 103.666 3.05249 103.666 2.49749C103.666 1.46678 103.111 0.951427 102.04 0.911785L100.851 0.951427L100.811 4.40034L102.08 4.43999C102.595 4.32106 102.992 4.12284 103.269 3.8057Z" fill="white"/>
</svg>
